HIERARCHY
ROOT Hips
{
  OFFSET 1.22927 95.1886 -44.3501
  CHANNELS 6 Xposition Yposition Zposition Zrotation Xrotation Yrotation
  JOINT ToSpine
  {
    OFFSET -2.69724 7.43032 -0.144315
    CHANNELS 3 Zrotation Xrotation Yrotation
    JOINT Spine
    {
      OFFSET -0.0310711 10.7595 1.96963
      CHANNELS 3 Zrotation Xrotation Yrotation
      JOINT Spine1
      {
        OFFSET 13.1342 3.43533 0.764692
        CHANNELS 3 Zrotation Xrotation Yrotation
        JOINT Neck
        {
          OFFSET 29.8703 7.82586 -0.130764
          CHANNELS 3 Zrotation Xrotation Yrotation
          JOINT Head
          {
            OFFSET 9.52751 0.295786 -0.907742
            CHANNELS 3 Zrotation Xrotation Yrotation
            End Site
            {
              OFFSET 16.4037 0.713936 2.7358
            }
          }
        }
        JOINT LeftShoulder
        {
          OFFSET 27.5574 4.95586 2.47156
          CHANNELS 3 Zrotation Xrotation Yrotation
          JOINT LeftArm
          {
            OFFSET 1.20734 -0.998971 20.1238
            CHANNELS 3 Zrotation Xrotation Yrotation
            JOINT LeftForeArm
            {
              OFFSET 26.8049 -0.0536703 -0.155908
              CHANNELS 3 Zrotation Xrotation Yrotation
              JOINT LeftHand
              {
                OFFSET 26.6817 0 0.320147
                CHANNELS 3 Zrotation Xrotation Yrotation
                End Site
                {
                  OFFSET 18.6119 0 0.382219
                }
              }
            }
          }
        }
        JOINT RightShoulder
        {
          OFFSET 27.5927 4.71444 -2.65209
          CHANNELS 3 Zrotation Xrotation Yrotation
          JOINT RightArm
          {
            OFFSET 2.83739 -1.17114 -18.7564
            CHANNELS 3 Zrotation Xrotation Yrotation
            JOINT RightForeArm
            {
              OFFSET 28.839 -0.0548439 1.22491
              CHANNELS 3 Zrotation Xrotation Yrotation
              JOINT RightHand
              {
                OFFSET 26.5114 0 -0.101894
                CHANNELS 3 Zrotation Xrotation Yrotation
                End Site
                {
                  OFFSET 18.2168 0 0
                }
              }
            }
          }
        }
      }
    }
  }
  JOINT LeftUpLeg
  {
    OFFSET -4.76168 -1.9167 -10.2353
    CHANNELS 3 Zrotation Xrotation Yrotation
    JOINT LeftLeg
    {
      OFFSET 2.55951 -42.0585 -8.02213
      CHANNELS 3 Zrotation Xrotation Yrotation
      JOINT LeftFoot
      {
        OFFSET 3.16357 -42.5282 -3.95426
        CHANNELS 3 Zrotation Xrotation Yrotation
        JOINT LeftToeBase
        {
          OFFSET 0.346054 -6.02161 12.8035
          CHANNELS 3 Zrotation Xrotation Yrotation
          End Site
          {
            OFFSET 0.134235 -1.35082 5.13018
          }
        }
      }
    }
  }
  JOINT RightUpLeg
  {
    OFFSET -4.94151 -1.41743 10.6446
    CHANNELS 3 Zrotation Xrotation Yrotation
    JOINT RightLeg
    {
      OFFSET -2.56294 -42.0364 -7.94377
      CHANNELS 3 Zrotation Xrotation Yrotation
      JOINT RightFoot
      {
        OFFSET -3.0952 -42.555 -4.02241
        CHANNELS 3 Zrotation Xrotation Yrotation
        JOINT RightToeBase
        {
          OFFSET -0.0828122 -6.13587 12.8035
          CHANNELS 3 Zrotation Xrotation Yrotation
          End Site
          {
            OFFSET -0.131328 -1.35082 5.13018
          }
        }
      }
    }
  }
}
MOTION
Frames:	10
Frame Time:	0.0333333
1.22927 95.1886 -44.3501 69.839 -33.5537 -10.9952 -70.1915 0 88.8779 79.8727 73.6258 3.78122 1.5318 22.1589 5.52548 -115.594 34.1324 150.506 177.124 80.5797 -145.438 0.609076 -14.4766 -19.7134 -67.5974 31.1915 -143.729 18.245 -2.78271 -97.6267 0.420955 0.000581939 0.358659 -1.8166 8.19735 36.3637 -136.093 -1.75502 98.1189 11.6368 -2.23983 79.1584 0.586759 0.000328927 0.0646669 -49.8436 6.77405 100.689 -2.24702 39.7867 -3.34359 0.757287 -14.7959 -1.26936 1.60997 -6.70349 11.2534 -44.7024 -11.3821 77.9681 2.51385 26.7466 -2.09978 -3.95505 2.60402 0.548111 0.645123 -6.48191 1.19399 
1.20997 95.1867 -44.332 69.9282 -33.5734 -10.9633 -70.1915 0 88.8779 80.0134 73.6323 3.49554 1.49553 22.1211 5.64004 -115.534 34.0109 150.492 178.172 80.5238 -146.219 0.623141 -14.3847 -19.5901 -67.6377 31.1211 -143.678 18.156 -2.76791 -97.6257 0.420955 0.000581939 0.358659 -1.83842 8.23528 36.5222 -135.904 -1.59975 98.1928 11.3267 -2.18993 79.1091 0.586759 0.000328927 0.0646669 -49.9588 6.7981 100.722 -2.21136 39.7186 -3.09728 0.784736 -14.997 -1.28409 1.36141 -6.15209 10.7221 -44.814 -11.3879 77.9232 2.51943 26.6814 -2.45307 -4.41345 2.71273 0.613306 0.577976 -6.71128 2.14311 
1.22003 95.2878 -44.2939 69.9124 -33.5445 -11.0487 -70.1915 0 88.8779 79.3227 73.625 3.99562 1.60822 22.0859 5.74258 -116.327 34.0213 151.096 177.011 80.1716 -145.612 0.603518 -14.501 -19.7918 -67.7933 31.0813 -143.435 18.2086 -2.80672 -97.7144 0.420955 0.000581939 0.358659 -1.82892 8.30563 36.2007 -135.752 -1.65885 98.0562 10.9814 -2.09428 79.2388 0.586759 0.000328927 0.0646669 -49.9204 6.76514 100.75 -2.25066 39.7489 -3.41406 1.45403 -14.911 -1.2757 0.955377 -5.59578 11.2316 -44.9248 -11.4514 77.875 2.46644 26.5215 -2.80102 -4.55758 2.72261 0.635455 0.392964 -6.33393 3.30636 
1.19514 95.2966 -44.2775 69.9542 -33.532 -11.036 -70.1915 0 88.8779 79.6294 73.6541 3.7769 1.58775 22.1682 5.53461 -116.394 33.8811 150.701 178.464 80.2243 -147.202 0.617829 -14.4716 -19.5004 -67.6503 31.1716 -143.632 18.4312 -2.84448 -97.7177 0.420955 0.000581939 0.358659 -1.80261 8.08484 36.5225 -135.846 -1.63636 98.1271 11.1256 -2.11831 79.2574 0.586759 0.000328927 0.0646669 -50.0116 6.68666 100.6 -2.27735 39.5917 -3.78279 1.49521 -14.5085 -1.24847 1.23058 -6.28485 12.1674 -45.0029 -11.4184 77.8818 2.49958 26.4748 -2.34193 -4.7852 2.95857 0.661557 0.58052 -6.61002 1.92884 
1.20567 95.2984 -44.2656 69.9743 -33.4878 -11.0187 -70.1915 0 88.8779 79.1921 73.5887 4.12688 1.72946 22.0759 5.63697 -116.685 33.9973 151.118 176.945 80.0874 -145.837 0.604043 -14.5198 -19.7289 -67.763 31.1124 -143.44 18.4111 -2.85464 -97.7567 0.420955 0.000581939 0.358659 -1.82971 8.26098 36.3398 -135.931 -1.86135 98.0702 11.2056 -2.13078 79.274 0.586759 0.000328927 0.0646669 -49.9887 6.7295 100.652 -2.30458 39.6731 -3.95071 1.44983 -14.6486 -1.25794 1.00504 -5.99026 12.4818 -45.038 -11.4248 77.8939 2.46067 26.4492 -2.63994 -4.8365 2.85541 0.673332 0.505061 -6.60396 2.65412 
1.1956 95.3031 -44.2516 69.9751 -33.4836 -11.0098 -70.1915 0 88.8779 79.028 73.5677 4.15914 1.73825 21.9779 5.90242 -116.851 34.1159 151.434 176.362 80.0418 -145.242 0.609484 -14.4004 -19.9072 -67.7702 31.0774 -143.477 18.6529 -2.92587 -97.8456 0.420955 0.000581939 0.358659 -1.82443 8.3731 35.953 -135.948 -2.04867 98.0411 11.189 -2.13425 79.2416 0.586759 0.000328927 0.0646669 -50.0008 6.69896 100.579 -2.2861 39.6305 -3.82487 1.5341 -14.2552 -1.23084 1.44345 -6.60892 12.0454 -45.0363 -11.443 77.8592 2.49592 26.4453 -2.77761 -5.21383 2.97712 0.72767 0.531656 -7.02244 3.02809 
1.17644 95.2846 -44.2552 69.9768 -33.4962 -11.0135 -70.1915 0 88.8779 79.2247 73.574 3.97732 1.6641 21.9853 5.89647 -116.726 34.037 151.243 176.868 80.0673 -145.518 0.627638 -14.3306 -19.6162 -67.6649 31.1918 -143.597 18.8294 -2.95221 -97.8363 0.420955 0.000581939 0.358659 -1.83872 8.26804 36.4301 -136.007 -2.07644 98.1906 11.1271 -2.13383 79.1844 0.586759 0.000328927 0.0646669 -50.0055 6.64152 100.443 -2.22306 39.5977 -3.3129 1.08041 -14.8017 -1.26963 1.12444 -5.92201 11.3294 -44.9999 -11.4126 77.865 2.53824 26.5177 -2.27034 -5.29043 3.0807 0.736808 0.707208 -7.34798 1.71839 
1.20009 95.2568 -44.2669 69.9756 -33.4719 -10.9587 -70.1915 0 88.8779 78.903 73.5425 4.3167 1.75514 21.9167 6.07694 -117.006 34.254 151.692 175.776 80.033 -144.605 0.619227 -14.3033 -19.9168 -67.7036 31.1914 -143.52 18.6395 -2.91876 -97.8317 0.420955 0.000581939 0.358659 -1.81328 8.48002 35.5189 -135.947 -2.42657 97.8029 10.9277 -2.08207 79.2484 0.586759 0.000328927 0.0646669 -49.9628 6.74393 100.575 -2.1224 39.6661 -2.38458 0.806512 -15.8127 -1.34596 0.40991 -4.14542 9.40314 -44.9101 -11.426 77.8706 2.47517 26.7183 -2.73183 -4.72177 2.66984 0.661521 0.427012 -6.37244 3.0115 
1.18755 95.2852 -44.2355 69.9544 -33.4735 -11.0139 -70.1915 0 88.8779 78.7583 73.5409 4.46568 1.75253 21.9502 5.95279 -116.793 34.1533 151.488 175.688 80.0253 -144.288 0.626768 -14.2985 -19.7271 -67.6205 31.2343 -143.61 18.7734 -2.95442 -97.8692 0.420955 0.000581939 0.358659 -1.81964 8.32435 36.0334 -135.879 -2.42568 97.9092 10.9706 -2.09975 79.204 0.586759 0.000328927 0.0646669 -49.9695 6.727 100.607 -2.26564 39.6505 -3.63659 1.38208 -14.6464 -1.25734 1.16827 -6.09771 11.8291 -44.9795 -11.4192 77.87 2.48835 26.5612 -2.36261 -4.78102 2.85163 0.66491 0.598338 -6.73993 1.96399 
1.20139 95.2981 -44.2229 70.0152 -33.4497 -10.9528 -70.1915 0 88.8779 78.8483 73.5107 4.42326 1.78318 21.9213 5.92751 -116.899 34.1913 151.609 175.316 79.9898 -144.049 0.653102 -14.0917 -19.5801 -67.5603 31.3023 -143.671 18.6693 -2.94336 -97.8876 0.420955 0.000581939 0.358659 -1.8295 8.48216 35.7084 -135.767 -2.47997 97.7783 10.9766 -2.10288 79.1944 0.586759 0.000328927 0.0646669 -50.0363 6.73906 100.556 -2.31863 39.6373 -4.10604 1.59672 -14.0799 -1.21946 1.59706 -6.99307 12.5751 -45.1081 -11.3936 77.8423 2.54022 26.4495 -2.25133 -4.8905 2.95544 0.678106 0.698303 -7.03781 1.40623 
